PathFileType	4	(X/Y/Z)	C:/Users/opensim2020/Desktop/walking_exp_matlab/subject02_walking14_straight_03.trc																																																																																																																									
DataRate	CameraRate	NumFrames	NumMarkers	Units	OrigDataRate	OrigDataStartFrame	OrigNumFrames																																																																																																																					
100	100	6	41	mm	100	1302	127																																																																																																																					
Frame#	Time	LFHD			RFHD			LBHD			RBHD			C7			T10			CLAV			STRN			RBAK			LSHO			LUPA			LELB			LFRM			LWRA			LWRB			LFIN			RSHO			RUPA			RELB			RFRM			RWRA			RWRB			RFIN			LASI			RASI			LPSI			RPSI			LTHI			LKNE			LTIB			LANK			LHEE			LTOE			RTHI			RKNE			RTIB			RANK			RHEE			RTOE			*39			*40		
		X1	Y1	Z1	X2	Y2	Z2	X3	Y3	Z3	X4	Y4	Z4	X5	Y5	Z5	X6	Y6	Z6	X7	Y7	Z7	X8	Y8	Z8	X9	Y9	Z9	X10	Y10	Z10	X11	Y11	Z11	X12	Y12	Z12	X13	Y13	Z13	X14	Y14	Z14	X15	Y15	Z15	X16	Y16	Z16	X17	Y17	Z17	X18	Y18	Z18	X19	Y19	Z19	X20	Y20	Z20	X21	Y21	Z21	X22	Y22	Z22	X23	Y23	Z23	X24	Y24	Z24	X25	Y25	Z25	X26	Y26	Z26	X27	Y27	Z27	X28	Y28	Z28	X29	Y29	Z29	X30	Y30	Z30	X31	Y31	Z31	X32	Y32	Z32	X33	Y33	Z33	X34	Y34	Z34	X35	Y35	Z35	X36	Y36	Z36	X37	Y37	Z37	X38	Y38	Z38	X39	Y39	Z39	X40	Y40	Z40	X41	Y41	Z41
																																																																																																																												
64	0.63	-5.58937	1713.27722	1471.78003	11.86169	1702.13831	1614.87988	-134.64813	1636.97351	1482.83362	-130.4212	1624.43701	1625.78821	-177.91435	1496.58252	1567.52051	-221.821	1222.38171	1595.93738	-38.01962	1433.83008	1536.86804	20.55112	1265.13879	1548.84241	-221.18448	1325.599	1651.44946	-137.63605	1462.09546	1381.21887	-207.85007	1270.72717	1315.5625	-254.06387	1143.48083	1311.72009	-309.15726	1029.76172	1291.40344	-313.88348	889.37695	1285.56555	-360.44943	919.95508	1280.60559	-382.60898	861.43488	1262.3457	-76.80509	1481.35339	1739.45715	-71.91726	1306.96851	1850.63977	-23.52587	1170.68213	1892.10278	64.19659	1083.47473	1890.99878	163.96402	1006.0827	1846.91675	136.88573	975.05591	1886.05017	204.22237	953.23456	1876.44214	-1.23548	968.58417	1441.91528	14.06249	943.65271	1693.64429	-206.13847	1011.72882	1532.21033	-200.78117	1006.61255	1648.05078	6.2755	671.8692	1378.35303	54.65729	480.49988	1411.63855	39.00872	288.22223	1404.42383	73.31739	69.38611	1439.40881	41.03434	40.39285	1491.53162	229.08484	41.26719	1427.69849	-140.68301	659.11365	1783.03638	-201.80168	459.58148	1772.87207	-346.47913	338.88406	1793.53174	-476.48068	194.05464	1778.34509	-532.46954	181.91122	1723.51111	-427.44092	33.45638	1772.37	-96.71017	1782.06506	1569.9574	2845.91187	1034.37622	-3357.34448
65	0.64	8.3761	1715.2085	1469.40637	25.64739	1703.77393	1612.48059	-120.74284	1638.90735	1480.17114	-116.65292	1626.0863	1623.09973	-163.68332	1498.42249	1564.33301	-207.06683	1223.5531	1592.35315	-23.75529	1435.89575	1534.27368	35.61479	1267.57544	1545.87903	-206.84944	1326.35571	1647.44531	-122.60324	1463.94922	1378.12915	-192.07487	1271.90869	1311.81213	-237.21173	1144.10449	1309.85034	-291.46524	1029.57788	1290.03918	-294.74261	888.9469	1286.35645	-341.76147	919.43994	1280.08521	-362.77844	860.36328	1263.53503	-63.73861	1482.82959	1736.97583	-60.70465	1307.71521	1847.00781	-13.84431	1170.87073	1888.15027	72.90742	1082.64417	1887.64709	172.17435	1004.2677	1844.42285	144.16229	973.15161	1883.04333	211.50682	951.05066	1874.43713	14.44857	970.00006	1437.75134	29.61927	944.5686	1687.82483	-190.57213	1014.16772	1529.07861	-184.05894	1007.9165	1646.2804	19.77549	672.13306	1376.01807	67.13194	480.77386	1410.42053	46.48378	288.74857	1404.37634	75.76285	69.11288	1439.55701	41.39281	40.69754	1491.47705	230.40535	39.7556	1428.83215	-119.11382	657.15356	1779.48242	-175.47667	457.43176	1770.72217	-322.20233	340.53839	1790.69629	-456.00122	200.42145	1776.95837	-511.46436	193.56905	1720.51624	-421.2251	36.53854	1770.21753	-82.87557	1783.77991	1567.52026	2846.12427	1034.40125	-3357.16748
66	0.65	22.46191	1717.14819	1467.04736	39.42011	1705.5863	1610.12476	-106.88274	1640.901	1477.69446	-103.02717	1627.74719	1620.21252	-149.61961	1500.02075	1561.39783	-192.39876	1224.88647	1588.91968	-9.41157	1437.93359	1531.78955	50.51912	1269.91638	1543.17273	-192.84135	1327.84692	1644.22241	-107.59135	1465.9292	1375.27563	-175.67366	1273.16235	1308.43738	-219.93774	1144.71045	1307.81372	-272.92865	1029.64587	1289.0968	-274.87842	888.72235	1286.87439	-321.7811	918.48926	1279.3667	-342.37051	858.60077	1263.78699	-50.69475	1484.38782	1734.40771	-49.56166	1308.56958	1843.40735	-4.53842	1170.99438	1884.06421	81.03864	1081.53467	1884.09277	179.75253	1001.97235	1841.96008	150.87959	971.22668	1880.24561	218.00067	948.31274	1872.5625	29.90329	971.93188	1433.45435	44.87805	945.62909	1682.32043	-175.27667	1016.22443	1526.34607	-167.8515	1009.18127	1644.32617	34.21418	673.0094	1374.77661	77.78851	480.20828	1409.28918	52.29398	289.12314	1404.74561	76.53869	69.19485	1440.08264	41.71539	41.08442	1491.7301	231.18257	38.73979	1428.49414	-97.09763	654.55768	1775.90295	-148.13699	454.80997	1768.66138	-296.97562	342.04053	1787.71826	-435.52173	207.74522	1774.2196	-490.35031	205.43878	1717.14575	-411.38712	42.20183	1766.96069	-68.96164	1785.57617	1565.29773	2846.09644	1034.45227	-3357.44043
67	0.66	36.2903	1719.28503	1464.69678	53.31949	1707.68799	1607.79224	-92.83877	1642.83704	1475.23462	-89.12818	1629.66309	1617.79114	-135.72546	1501.51355	1558.66858	-177.92657	1226.5459	1585.56458	4.91618	1439.99109	1529.4939	65.1096	1272.09448	1540.73486	-178.916	1329.57788	1640.89087	-92.47251	1468.03564	1372.57861	-158.64273	1274.62927	1306.01294	-202.41701	1145.49377	1305.72424	-253.81013	1029.55273	1287.75476	-253.72713	888.18323	1287.48413	-301.16208	917.42206	1278.52771	-320.11148	856.48529	1264.35498	-37.59374	1486.04578	1731.9386	-38.46312	1309.44983	1840.05896	4.79288	1171.36182	1880.13196	89.0342	1080.58105	1880.86035	186.76326	999.52905	1839.6897	156.96159	969.00299	1877.48328	223.64919	945.08289	1870.7644	44.94395	974.18018	1429.49084	59.85448	946.67474	1677.28467	-160.31085	1017.96777	1523.89075	-152.33194	1010.57092	1642.22278	49.20798	674.94153	1372.74658	87.17754	480.1376	1408.31799	56.452	289.04312	1405.32935	77.38039	69.31356	1440.46155	41.71577	41.56627	1492.01941	231.99225	38.07774	1428.51331	-74.36293	651.68274	1772.37781	-120.30638	452.54031	1766.42322	-271.15826	343.37729	1785.11877	-414.89426	215.4391	1769.82263	-468.07819	216.74289	1712.2301	-397.22702	49.75665	1765.70251	-55.39256	1787.52954	1562.75122	2846.00684	1034.40308	-3357.39233
68	0.67	50.30043	1721.44836	1462.41064	67.2273	1709.94763	1605.51123	-78.76632	1644.89001	1472.89673	-74.89344	1631.90369	1615.76489	-121.86837	1503.14148	1555.91064	-163.46249	1228.39368	1582.14868	19.20964	1442.12488	1527.40869	79.50908	1274.22375	1538.69897	-165.21927	1331.4176	1637.4585	-77.27722	1470.25256	1369.96619	-141.71408	1276.11597	1302.77136	-184.57439	1146.31909	1303.50464	-234.15208	1029.26221	1286.19116	-231.0536	888.07397	1287.97607	-279.16492	916.02496	1277.60425	-296.65558	854.06891	1264.52344	-24.68966	1487.79041	1729.72583	-27.51209	1310.41394	1836.84436	13.99191	1171.75562	1876.23511	96.72406	1079.56396	1877.90649	193.44676	996.57513	1837.55457	162.2338	966.45343	1874.81079	228.69539	941.42963	1869.07861	59.55575	976.86792	1425.79956	74.48853	947.82312	1672.97937	-145.71133	1019.43536	1521.52759	-137.34348	1012.00018	1639.78503	63.04984	676.15344	1371.90051	94.20927	479.85477	1407.23096	59.51157	288.92191	1405.92456	77.8568	69.2595	1440.85608	41.68002	41.56891	1492.11255	232.52895	37.66587	1428.9563	-51.0784	649.35596	1769.00793	-91.94795	450.53867	1764.00342	-244.83031	345.63571	1782.80164	-392.50717	223.44891	1764.43762	-444.66281	225.29733	1704.74548	-378.55215	57.91045	1766.422	-41.50188	1789.67578	1560.3291	2846.08472	1034.29346	-3357.0686
69	0.68	64.3921	1723.6532	1460.15198	81.31356	1712.34058	1603.2948	-64.64527	1647.13367	1470.69617	-61.00873	1634.1283	1613.26245	-108.06708	1504.94922	1552.97034	-149.16304	1230.48193	1578.84607	33.38194	1444.41272	1525.56982	93.75314	1276.37683	1537.03345	-151.67984	1333.7533	1634.4397	-61.93568	1472.60095	1367.39539	-125.13957	1277.70789	1299.5769	-166.3455	1147.05969	1301.09143	-213.82155	1028.71118	1284.17114	-208.51863	887.56494	1287.93433	-256.74927	914.52533	1276.39355	-272.43207	851.86438	1264.42053	-12.0207	1489.51611	1727.44275	-16.71258	1311.35718	1833.70117	22.99977	1172.18652	1872.35449	103.96449	1078.37134	1874.78845	199.38406	993.29407	1835.43201	167.12935	963.87634	1872.38269	233.00168	937.35315	1867.4021	73.45628	979.43597	1422.65479	88.77273	949.13647	1669.43359	-131.54996	1020.78156	1519.1825	-123.07941	1013.61023	1637.13733	76.12441	677.83929	1369.54248	99.73332	479.65439	1406.08862	61.77488	288.79208	1405.98694	78.06995	69.32207	1441.15527	41.768	41.69156	1492.30615	232.88406	37.27884	1428.90222	-27.75933	648.76062	1766.10889	-63.82302	449.85565	1761.33557	-218.10808	348.74335	1779.01245	-369.319	230.80573	1757.40137	-421.09561	230.94783	1696.40344	-356.4838	65.8581	1765.66663	-27.33504	1792.02295	1558.15198	2846.06055	1034.28357	-3357.23633
